HIERARCHY
ROOT hip
{
  OFFSET 0 0 0
  CHANNELS 6 Xposition Yposition Zposition Zrotation Yrotation Xrotation
  JOINT abdomen
  {
    OFFSET 0 20.6881 -0.73152
    CHANNELS 3 Zrotation Xrotation Yrotation
    JOINT chest
    {
      OFFSET 0 11.7043 -0.48768
      CHANNELS 3 Zrotation Xrotation Yrotation
      JOINT neck
      {
        OFFSET 0 22.1894 -2.19456
        CHANNELS 3 Zrotation Xrotation Yrotation
        JOINT head
        {
          OFFSET -0.24384 7.07133 1.2192
          CHANNELS 3 Zrotation Xrotation Yrotation
          JOINT leftEye
          {
            OFFSET 4.14528 8.04674 8.04672
            CHANNELS 3 Zrotation Xrotation Yrotation
            End Site
            {
              OFFSET 1 0 0
            }
          }
          JOINT rightEye
          {
            OFFSET -3.6576 8.04674 8.04672
            CHANNELS 3 Zrotation Xrotation Yrotation
            End Site
            {
              OFFSET 1 0 0
            }
          }
        }
      }
      JOINT rCollar
      {
        OFFSET -2.68224 19.2634 -4.8768
        CHANNELS 3 Zrotation Xrotation Yrotation
        JOINT rShldr
        {
          OFFSET -8.77824 -1.95073 1.46304
          CHANNELS 3 Zrotation Xrotation Yrotation
          JOINT rForeArm
          {
            OFFSET -28.1742 -1.7115 0.48768
            CHANNELS 3 Zrotation Xrotation Yrotation
            JOINT rHand
            {
              OFFSET -22.5879 0.773209 7.07136
              CHANNELS 3 Zrotation Xrotation Yrotation
              JOINT rThumb1
              {
                OFFSET -1.2192 -0.487915 3.41376
                CHANNELS 3 Zrotation Xrotation Yrotation
                JOINT rThumb2
                {
                  OFFSET -3.37035 -0.52449 3.41376
                  CHANNELS 3 Zrotation Xrotation Yrotation
                  End Site
                  {
                    OFFSET -1.78271 -1.18214 1.43049
                  }
                }
              }
              JOINT rIndex1
              {
                OFFSET -7.75947 0.938293 5.60832
                CHANNELS 3 Zrotation Xrotation Yrotation
                JOINT rIndex2
                {
                  OFFSET -2.54057 -0.884171 1.56538
                  CHANNELS 3 Zrotation Xrotation Yrotation
                  End Site
                  {
                    OFFSET -1.62519 -0.234802 1.16502
                  }
                }
              }
              JOINT rMid1
              {
                OFFSET -8.24714 1.18213 3.41376
                CHANNELS 3 Zrotation Xrotation Yrotation
                JOINT rMid2
                {
                  OFFSET -3.10165 -0.590103 1.0647
                  CHANNELS 3 Zrotation Xrotation Yrotation
                  End Site
                  {
                    OFFSET -2.48547 -0.328903 0.83742
                  }
                }
              }
              JOINT rRing1
              {
                OFFSET -8.82822 0.546677 1.51678
                CHANNELS 3 Zrotation Xrotation Yrotation
                JOINT rRing2
                {
                  OFFSET -2.60934 -0.819778 -0.0198488
                  CHANNELS 3 Zrotation Xrotation Yrotation
                  End Site
                  {
                    OFFSET -2.33842 -0.294052 0.168128
                  }
                }
              }
              JOINT rPinky1
              {
                OFFSET -8.27202 -0.0477905 -0.4584
                CHANNELS 3 Zrotation Xrotation Yrotation
                JOINT rPinky2
                {
                  OFFSET -1.82734 -0.647385 -0.700984
                  CHANNELS 3 Zrotation Xrotation Yrotation
                  End Site
                  {
                    OFFSET -1.69225 -0.51767 -0.607171
                  }
                }
              }
            }
          }
        }
      }
      JOINT lCollar
      {
        OFFSET 2.68224 19.2634 -4.8768
        CHANNELS 3 Zrotation Xrotation Yrotation
        JOINT lShldr
        {
          OFFSET 8.77824 -1.95073 1.46304
          CHANNELS 3 Zrotation Xrotation Yrotation
          JOINT lForeArm
          {
            OFFSET 28.1742 -1.7115 0.48768
            CHANNELS 3 Zrotation Xrotation Yrotation
            JOINT lHand
            {
              OFFSET 22.5879 0.773209 7.07136
              CHANNELS 3 Zrotation Xrotation Yrotation
              JOINT lThumb1
              {
                OFFSET 1.2192 -0.487915 3.41376
                CHANNELS 3 Zrotation Xrotation Yrotation
                JOINT lThumb2
                {
                  OFFSET 3.37035 -0.52449 3.41376
                  CHANNELS 3 Zrotation Xrotation Yrotation
                  End Site
                  {
                    OFFSET 1.78271 -1.18214 1.43049
                  }
                }
              }
              JOINT lIndex1
              {
                OFFSET 7.75947 0.938293 5.60832
                CHANNELS 3 Zrotation Xrotation Yrotation
                JOINT lIndex2
                {
                  OFFSET 2.54057 -0.884171 1.56538
                  CHANNELS 3 Zrotation Xrotation Yrotation
                  End Site
                  {
                    OFFSET 1.62519 -0.234802 1.16502
                  }
                }
              }
              JOINT lMid1
              {
                OFFSET 8.24714 1.18213 3.41376
                CHANNELS 3 Zrotation Xrotation Yrotation
                JOINT lMid2
                {
                  OFFSET 3.10165 -0.590103 1.0647
                  CHANNELS 3 Zrotation Xrotation Yrotation
                  End Site
                  {
                    OFFSET 2.48547 -0.328903 0.83742
                  }
                }
              }
              JOINT lRing1
              {
                OFFSET 8.82822 0.546677 1.51678
                CHANNELS 3 Zrotation Xrotation Yrotation
                JOINT lRing2
                {
                  OFFSET 2.60934 -0.819778 -0.0198488
                  CHANNELS 3 Zrotation Xrotation Yrotation
                  End Site
                  {
                    OFFSET 2.33842 -0.294052 0.168128
                  }
                }
              }
              JOINT lPinky1
              {
                OFFSET 8.27202 -0.0477905 -0.4584
                CHANNELS 3 Zrotation Xrotation Yrotation
                JOINT lPinky2
                {
                  OFFSET 1.82734 -0.647385 -0.700984
                  CHANNELS 3 Zrotation Xrotation Yrotation
                  End Site
                  {
                    OFFSET 1.69225 -0.51767 -0.607171
                  }
                }
              }
            }
          }
        }
      }
    }
  }
  JOINT rButtock
  {
    OFFSET -8.77824 4.35084 1.2192
    CHANNELS 3 Zrotation Xrotation Yrotation
    JOINT rThigh
    {
      OFFSET 0 -1.70687 -2.19456
      CHANNELS 3 Zrotation Xrotation Yrotation
      JOINT rShin
      {
        OFFSET 0 -36.8199 0.73152
        CHANNELS 3 Zrotation Xrotation Yrotation
        JOINT rFoot
        {
          OFFSET 0.73152 -45.1104 -5.12064
          CHANNELS 3 Zrotation Xrotation Yrotation
          End Site
          {
            OFFSET -1.1221 -3.69964 12.103
          }
        }
      }
    }
  }
  JOINT lButtock
  {
    OFFSET 8.77824 4.35084 1.2192
    CHANNELS 3 Zrotation Xrotation Yrotation
    JOINT lThigh
    {
      OFFSET 0 -1.70687 -2.19456
      CHANNELS 3 Zrotation Xrotation Yrotation
      JOINT lShin
      {
        OFFSET 0 -36.8199 0.73152
        CHANNELS 3 Zrotation Xrotation Yrotation
        JOINT lFoot
        {
          OFFSET -0.73152 -45.1104 -5.12064
          CHANNELS 3 Zrotation Xrotation Yrotation
          End Site
          {
            OFFSET 1.1221 -3.69964 12.103
          }
        }
      }
    }
  }
}
MOTION
Frames:	5
Frame Time:	0.00833333
-5.52649 84.3036 33.5489 -2.8336 -2.0989 2.0294 2.75476 16.1248 0.355274 0.021617 -3.50063 0.213179 -4.31219 13.4751 1.42713 6.76418 -7.66864 3.37157 -0.0 0.0 0.0 -0.0 0.0 0.0 1.33749e-13 7.45816e-14 7.7686e-14 84.3244 18.8418 -21.3014 -22.9816 -17.3061 46.5324 -0.0762261 7.85235 1.11061 -1.46479e-09 1.4078e-09 3.64249e-11 -2.53278e-09 2.43171e-09 7.17599e-11 -1.46478e-09 1.40779e-09 3.64044e-11 7.73091 5.47488 0.417314 -1.46479e-09 1.40779e-09 3.64229e-11 2.90554 0.965183 0.102902 -1.46478e-09 1.40779e-09 3.64197e-11 10.2786 0.731801 0.0259123 -1.46479e-09 1.40779e-09 3.64244e-11 2.22167 -0.733487 -0.20892 1.33798e-13 7.4582e-14 7.74476e-14 -16.7837 32.2419 -29.8838 19.7938 -53.5082 -114.712 9.52461 -62.4735 15.6436 5.91357e-10 4.20289e-10 7.6822e-10 9.76708e-10 7.92154e-10 1.35427e-09 5.91356e-10 4.20293e-10 7.68224e-10 -7.73091 5.47488 -0.417314 5.91367e-10 4.20277e-10 7.68204e-10 -2.90554 0.965183 -0.102902 5.91349e-10 4.20292e-10 7.68217e-10 -10.2786 0.731801 -0.0259123 5.91361e-10 4.20292e-10 7.68205e-10 -2.22167 -0.733487 0.20892 -2.03217e-16 0.0 -3.88251e-19 -3.50487 1.24917 1.90835 0.00205909 0.103531 0.0181488 -2.57231 -10.5028 -10.7229 2.03217e-16 0.0 3.88251e-19 10.8586 -12.1006 -0.986323 0.0869324 23.8086 -0.515166 3.77479 -15.2629 11.5096
-5.6159 84.3017 33.5206 -2.9012 -2.0768 2.0522 2.77036 16.1943 0.358893 0.0095905 -3.53248 0.214914 -4.62365 13.14 1.28392 7.40757 -6.76704 3.11888 -0.0 0.0 0.0 -0.0 0.0 0.0 1.05767e-13 2.85254e-14 3.70361e-14 84.2288 18.8256 -21.2501 -22.9929 -17.3248 46.5651 -0.0760242 7.84203 1.10913 -8.70696e-10 7.67773e-10 -8.17027e-11 -1.50597e-09 1.3266e-09 -1.34454e-10 -8.70686e-10 7.67766e-10 -8.17182e-11 7.73091 5.47488 0.417314 -8.70695e-10 7.67765e-10 -8.17019e-11 2.90554 0.965183 0.102902 -8.70689e-10 7.67765e-10 -8.1708e-11 10.2786 0.731801 0.0259123 -8.70699e-10 7.67767e-10 -8.17027e-11 2.22167 -0.733487 -0.20892 1.05765e-13 2.85259e-14 3.68124e-14 -17.2713 32.3601 -29.5 20.0513 -53.3124 -114.09 9.224 -61.9684 15.3039 4.75818e-10 -1.29511e-10 2.96753e-10 8.03032e-10 -1.76828e-10 5.36367e-10 4.75818e-10 -1.29505e-10 2.96758e-10 -7.73091 5.47488 -0.417314 4.75825e-10 -1.29516e-10 2.96742e-10 -2.90554 0.965183 -0.102902 4.75811e-10 -1.29507e-10 2.96748e-10 -10.2786 0.731801 -0.0259123 4.75821e-10 -1.29509e-10 2.96736e-10 -2.22167 -0.733487 0.20892 -2.03217e-16 0.0 -3.88251e-19 -3.38427 1.21031 1.87121 0.00204849 0.10215 0.0180553 -2.56891 -10.4766 -10.7295 2.03217e-16 0.0 3.88251e-19 10.9687 -12.1656 -1.01236 0.0870226 23.8194 -0.515375 3.77528 -15.2315 11.5281
-5.69844 84.301 33.4948 -2.9434 -2.0413 2.0562 2.79115 16.2652 0.35165 -0.0027537 -3.57314 0.213782 -4.90656 12.8135 1.14933 7.97582 -5.88485 2.87556 -0.0 0.0 0.0 -0.0 0.0 0.0 7.40682e-14 -2.46374e-14 -2.65098e-15 84.1275 18.8346 -21.197 -23.0047 -17.3445 46.5995 -0.0758907 7.83521 1.10815 -2.15778e-10 7.93783e-11 -2.10106e-10 -3.74002e-10 1.38014e-10 -3.5878e-10 -2.15769e-10 7.93738e-11 -2.10115e-10 7.73091 5.47488 0.417314 -2.15779e-10 7.93723e-11 -2.10102e-10 2.90554 0.965183 0.102902 -2.15774e-10 7.93748e-11 -2.1011e-10 10.2786 0.731801 0.0259123 -2.15782e-10 7.93782e-11 -2.10104e-10 2.22167 -0.733487 -0.20892 7.40102e-14 -2.46368e-14 -2.85986e-15 -17.7952 32.4562 -29.073 20.3074 -53.1101 -113.463 8.90167 -61.4013 14.9376 2.97026e-10 -6.47633e-10 -2.04022e-10 5.221e-10 -1.09731e-09 -3.35414e-10 2.97028e-10 -6.47626e-10 -2.04016e-10 -7.73091 5.47488 -0.417314 2.9703e-10 -6.47631e-10 -2.04028e-10 -2.90554 0.965183 -0.102902 2.9702e-10 -6.47628e-10 -2.04028e-10 -10.2786 0.731801 -0.0259123 2.97029e-10 -6.47631e-10 -2.0404e-10 -2.22167 -0.733487 0.20892 -2.03217e-16 0.0 -3.88251e-19 -3.26779 1.15529 1.84458 0.00203969 0.102262 0.0179777 -2.56643 -10.4425 -10.745 2.03217e-16 0.0 3.88251e-19 11.0706 -12.2455 -1.04404 0.0871887 23.8419 -0.516088 3.78416 -15.2027 11.5697
-5.78629 84.2972 33.4601 -2.9882 -1.9985 2.0948 2.78461 16.3317 0.312891 -0.0053221 -3.61315 0.202922 -5.00652 12.5734 1.04138 8.26541 -5.13651 2.66043 -0.0 0.0 0.0 -0.0 0.0 0.0 5.04888e-14 -5.24799e-14 -2.73329e-14 84.0366 18.8885 -21.1429 -23.0155 -17.3624 46.6307 -0.0758616 7.83372 1.10794 2.1498e-10 -3.53938e-10 -2.64905e-10 3.70735e-10 -6.10298e-10 -4.55548e-10 2.14988e-10 -3.53941e-10 -2.64912e-10 7.73091 5.47488 0.417314 2.14978e-10 -3.53943e-10 -2.64899e-10 2.90554 0.965183 0.102902 2.14982e-10 -3.53939e-10 -2.64908e-10 10.2786 0.731801 0.0259123 2.14975e-10 -3.53935e-10 -2.64902e-10 2.22167 -0.733487 -0.20892 5.03977e-14 -5.24792e-14 -2.75317e-14 -18.3234 32.5283 -28.5977 20.533 -52.9262 -112.904 8.63258 -60.9074 14.6302 1.40037e-10 -8.72496e-10 -4.88753e-10 2.67194e-10 -1.50547e-09 -8.34015e-10 1.40039e-10 -8.72489e-10 -4.88746e-10 -7.73091 5.47488 -0.417314 1.40038e-10 -8.72491e-10 -4.88756e-10 -2.90554 0.965183 -0.102902 1.40031e-10 -8.72492e-10 -4.88759e-10 -10.2786 0.731801 -0.0259123 1.40039e-10 -8.72496e-10 -4.88772e-10 -2.22167 -0.733487 0.20892 -2.03217e-16 0.0 -3.88251e-19 -3.16269 1.10405 1.81657 0.00203552 0.103104 0.0179412 -2.56445 -10.4136 -10.7559 2.03217e-16 0.0 3.88251e-19 11.1531 -12.3212 -1.09991 0.0873248 23.865 -0.517077 3.80233 -15.1742 11.6385
-5.87254 84.2918 33.4193 -3.0219 -1.9663 2.151 2.73268 16.3947 0.223499 0.00664485 -3.65737 0.176367 -4.82751 12.4481 0.971192 8.13827 -4.55639 2.48188 -0.0 0.0 0.0 -0.0 0.0 0.0 3.78584e-14 -4.19571e-14 -3.01559e-14 83.9713 19.0095 -21.0943 -23.0249 -17.3781 46.6581 -0.0760264 7.84218 1.10915 3.2622e-10 -4.18653e-10 -2.00792e-10 5.63579e-10 -7.22457e-10 -3.46555e-10 3.26227e-10 -4.18653e-10 -2.00798e-10 7.73091 5.47488 0.417314 3.26217e-10 -4.18655e-10 -2.00784e-10 2.90554 0.965183 0.102902 3.2622e-10 -4.18651e-10 -2.00792e-10 10.2786 0.731801 0.0259123 3.26214e-10 -4.18647e-10 -2.00786e-10 2.22167 -0.733487 -0.20892 3.777e-14 -4.19558e-14 -3.03488e-14 -18.8589 32.57 -28.041 20.7218 -52.7695 -112.432 8.41939 -60.5039 14.3857 -6.24058e-12 -6.02655e-10 -4.33735e-10 1.26646e-11 -1.05186e-09 -7.46984e-10 -6.23887e-12 -6.0265e-10 -4.33729e-10 -7.73091 5.47488 -0.417314 -6.24002e-12 -6.0265e-10 -4.33736e-10 -2.90554 0.965183 -0.102902 -6.24645e-12 -6.02653e-10 -4.3374e-10 -10.2786 0.731801 -0.0259123 -6.23641e-12 -6.02656e-10 -4.33752e-10 -2.22167 -0.733487 0.20892 -2.03217e-16 0.0 -3.88251e-19 -3.07135 1.05962 1.7869 0.00203842 0.104972 0.0179671 -2.56346 -10.3896 -10.7614 2.03217e-16 0.0 3.88251e-19 11.206 -12.3898 -1.20012 0.0873778 23.8904 -0.51863 3.83867 -15.1456 11.7609
